<svg width="100" height="38" viewBox="0 0 100 38" fill="none" xmlns="http://www.w3.org/2000/svg">
<path d="M59.26 21.14C59.26 22.3133 59.0333 23.36 58.58 24.28C58.14 25.1867 57.5333 25.9 56.76 26.42C55.9867 26.94 55.1133 27.2 54.14 27.2C53.1533 27.2 52.2733 26.94 51.5 26.42C50.74 25.9 50.1333 25.1867 49.68 24.28C49.24 23.36 49.02 22.3133 49.02 21.14C49.02 19.9667 49.24 18.9267 49.68 18.02C50.1333 17.1 50.74 16.38 51.5 15.86C52.2733 15.3267 53.1533 15.06 54.14 15.06C55.1133 15.06 55.9867 15.3267 56.76 15.86C57.5333 16.38 58.14 17.1 58.58 18.02C59.0333 18.9267 59.26 19.9667 59.26 21.14ZM57.02 21.14C57.02 20.34 56.8933 19.64 56.64 19.04C56.4 18.4267 56.06 17.9533 55.62 17.62C55.1933 17.2733 54.7 17.1 54.14 17.1C53.5667 17.1 53.06 17.2733 52.62 17.62C52.18 17.9533 51.8333 18.4267 51.58 19.04C51.34 19.64 51.22 20.34 51.22 21.14C51.22 22.34 51.4867 23.3133 52.02 24.06C52.5667 24.7933 53.2733 25.16 54.14 25.16C54.7 25.16 55.1933 24.9933 55.62 24.66C56.06 24.3267 56.4 23.86 56.64 23.26C56.8933 22.6467 57.02 21.94 57.02 21.14ZM61.5052 27V24.44H63.3252V27H61.5052ZM75.803 21.14C75.803 22.3133 75.5763 23.36 75.123 24.28C74.683 25.1867 74.0763 25.9 73.303 26.42C72.5296 26.94 71.6563 27.2 70.683 27.2C69.6963 27.2 68.8163 26.94 68.043 26.42C67.283 25.9 66.6763 25.1867 66.223 24.28C65.783 23.36 65.563 22.3133 65.563 21.14C65.563 19.9667 65.783 18.9267 66.223 18.02C66.6763 17.1 67.283 16.38 68.043 15.86C68.8163 15.3267 69.6963 15.06 70.683 15.06C71.6563 15.06 72.5296 15.3267 73.303 15.86C74.0763 16.38 74.683 17.1 75.123 18.02C75.5763 18.9267 75.803 19.9667 75.803 21.14ZM73.563 21.14C73.563 20.34 73.4363 19.64 73.183 19.04C72.943 18.4267 72.603 17.9533 72.163 17.62C71.7363 17.2733 71.243 17.1 70.683 17.1C70.1096 17.1 69.603 17.2733 69.163 17.62C68.723 17.9533 68.3763 18.4267 68.123 19.04C67.883 19.64 67.763 20.34 67.763 21.14C67.763 22.34 68.0296 23.3133 68.563 24.06C69.1096 24.7933 69.8163 25.16 70.683 25.16C71.243 25.16 71.7363 24.9933 72.163 24.66C72.603 24.3267 72.943 23.86 73.183 23.26C73.4363 22.6467 73.563 21.94 73.563 21.14ZM88.0881 21.14C88.0881 22.3133 87.8615 23.36 87.4081 24.28C86.9681 25.1867 86.3615 25.9 85.5881 26.42C84.8148 26.94 83.9415 27.2 82.9681 27.2C81.9815 27.2 81.1015 26.94 80.3281 26.42C79.5681 25.9 78.9615 25.1867 78.5081 24.28C78.0681 23.36 77.8481 22.3133 77.8481 21.14C77.8481 19.9667 78.0681 18.9267 78.5081 18.02C78.9615 17.1 79.5681 16.38 80.3281 15.86C81.1015 15.3267 81.9815 15.06 82.9681 15.06C83.9415 15.06 84.8148 15.3267 85.5881 15.86C86.3615 16.38 86.9681 17.1 87.4081 18.02C87.8615 18.9267 88.0881 19.9667 88.0881 21.14ZM85.8481 21.14C85.8481 20.34 85.7215 19.64 85.4681 19.04C85.2281 18.4267 84.8881 17.9533 84.4481 17.62C84.0215 17.2733 83.5281 17.1 82.9681 17.1C82.3948 17.1 81.8881 17.2733 81.4481 17.62C81.0081 17.9533 80.6615 18.4267 80.4081 19.04C80.1681 19.64 80.0481 20.34 80.0481 21.14C80.0481 22.34 80.3148 23.3133 80.8481 24.06C81.3948 24.7933 82.1015 25.16 82.9681 25.16C83.5281 25.16 84.0215 24.9933 84.4481 24.66C84.8881 24.3267 85.2281 23.86 85.4681 23.26C85.7215 22.6467 85.8481 21.94 85.8481 21.14Z" fill="#121212"/>
<path d="M5.9375 8.31255C5.62256 8.31255 5.32051 8.43766 5.09781 8.66036C4.87511 8.88306 4.75 9.18511 4.75 9.50005C4.75 9.81499 4.87511 10.117 5.09781 10.3397C5.32051 10.5624 5.62256 10.6876 5.9375 10.6876H8.57375L11.6897 23.1563C11.9546 24.2132 12.901 24.9375 13.9899 24.9375H27.6106C28.6829 24.9375 29.5937 24.2251 29.8751 23.1919L32.9531 11.8751H13.0625L13.6562 14.25H29.8727L27.6094 22.5625H13.9887L10.8739 10.0938C10.7453 9.58226 10.4487 9.12869 10.0316 8.80574C9.61457 8.48278 9.10121 8.30911 8.57375 8.31255H5.9375ZM26.125 24.9375C24.1716 24.9375 22.5625 26.5466 22.5625 28.5C22.5625 30.4535 24.1716 32.0625 26.125 32.0625C28.0784 32.0625 29.6875 30.4535 29.6875 28.5C29.6875 26.5466 28.0784 24.9375 26.125 24.9375ZM15.4375 24.9375C13.4841 24.9375 11.875 26.5466 11.875 28.5C11.875 30.4535 13.4841 32.0625 15.4375 32.0625C17.3909 32.0625 19 30.4535 19 28.5C19 26.5466 17.3909 24.9375 15.4375 24.9375ZM15.4375 27.3125C16.1073 27.3125 16.625 27.8303 16.625 28.5C16.625 29.1698 16.1073 29.6875 15.4375 29.6875C14.7677 29.6875 14.25 29.1698 14.25 28.5C14.25 27.8303 14.7677 27.3125 15.4375 27.3125ZM26.125 27.3125C26.7948 27.3125 27.3125 27.8303 27.3125 28.5C27.3125 29.1698 26.7948 29.6875 26.125 29.6875C25.4552 29.6875 24.9375 29.1698 24.9375 28.5C24.9375 27.8303 25.4552 27.3125 26.125 27.3125Z" fill="#121212"/>
</svg>
