<svg width="148" height="173" viewBox="0 0 148 173" fill="none" xmlns="http://www.w3.org/2000/svg">
<path d="M76.3175 0.848254C43.042 5.25061 14.4983 23.7613 4.30838 56.7209C-5.38632 88.2505 3.22139 123.24 27.3052 145.999C39.9134 158.014 56.1074 166.654 73.1121 170.372C87.4839 173.518 105.359 174.053 118.359 165.817C147.226 147.187 148.97 102.955 145.966 72.5794C143.98 52.8365 137.208 33.2417 124.691 17.5243C112.63 2.44557 94.868 -1.14005 76.3175 0.848254C73.7145 1.14638 73.8492 5.05955 76.4596 4.97881C91.9721 3.3021 108.699 5.28751 119.575 17.5737C130.57 30.1825 137.552 46.3976 140.618 62.7338C146.099 92.2707 145.374 131.358 124.744 155.173C102.643 180.558 58.7103 166.356 36.3213 148.55C12.2521 129.381 0.643494 98.9455 5.91989 68.7495C8.65189 53.2133 15.4195 37.8788 27.0174 26.8562C40.5207 14.2514 58.4716 7.49379 76.5721 5.08415C78.95 4.57535 78.8079 0.444789 76.3175 0.848254Z" fill="#FFD586"/>
<path d="M115.345 8.56376C98.9854 4.60831 80.9073 7.67014 67.1943 17.3435C52.416 27.7027 46.2633 45.0857 44.4612 62.3341C40.4891 101.957 54.3765 147.991 89.7421 169.531C91.9698 170.985 93.9129 167.334 91.5802 165.992C58.7723 146.005 46.0172 104.397 48.0162 67.5561C48.9482 50.3345 53.9758 31.8982 68.3115 21.3351C81.372 11.6819 98.6924 8.75233 114.392 12.5106C117.025 13.082 117.873 9.24729 115.345 8.56376Z" fill="#FFD586"/>
<path d="M113.297 12.3268C104.105 39.4883 97.8763 67.3198 94.7154 95.7094C94.4751 98.2195 98.4281 99.1854 98.6684 96.6753C101.829 68.2857 108.051 40.2368 117.25 13.2927C118.038 10.8744 114.085 9.90852 113.297 12.3268Z" fill="#FFD586"/>
<path d="M48.0621 59.3936C62.8755 72.2108 78.071 89.8041 97.4308 95.5166C99.9586 96.2001 100.807 92.3654 98.3839 91.5698C80.0142 86.1531 65.0437 68.7705 50.7928 56.4799C48.7752 54.8013 46.0445 57.7149 48.0621 59.3936Z" fill="#FFD586"/>
<path d="M59.2698 122.486C70.9425 113.637 83.3051 105.856 96.4703 99.246C98.8258 98.085 96.7483 94.6672 94.3928 95.8282C81.2277 102.438 68.865 110.219 57.1923 119.068C55.1744 120.545 57.2518 123.963 59.2698 122.486Z" fill="#FFD586"/>
<path d="M96.7558 94.8846C98.8986 119.193 98.776 144.115 91.7451 167.619C90.9572 170.037 94.9102 171.003 95.6981 168.585C102.827 144.752 103.152 119.388 100.889 94.7568C100.582 92.1547 96.4485 92.2825 96.7558 94.8846Z" fill="#FFD586"/>
<path d="M97.9033 96.5901C106.102 100.689 114.187 104.683 122.386 108.782C129.031 112.058 135.482 115.994 142.818 117.182C145.338 117.648 146.291 113.701 143.771 113.235C135.887 111.955 128.649 107.282 121.561 103.802C114.36 100.216 107.047 96.525 99.8464 92.9391C97.3037 91.8208 95.4655 95.3597 97.9033 96.5901Z" fill="#FFD586"/>
<path d="M100.604 95.9625C114.189 85.7491 128.112 75.8516 142.148 66.0595C144.279 64.6878 142.089 61.1646 140.071 62.6416C126.035 72.4338 112.112 82.3312 98.5263 92.5447C96.4033 94.1338 98.5933 97.6569 100.604 95.9625Z" fill="#FFD586"/>
<path d="M83.5139 45.457C84.5248 62.1832 88.9938 78.1495 97.0185 93.0266C98.2935 95.2723 101.707 93.208 100.432 90.9624C92.7595 76.8361 88.5305 61.5152 87.542 45.4413C87.4447 42.6151 83.4241 42.8482 83.5139 45.457Z" fill="#FFD586"/>
<path d="M94.1077 97.0339C88.2187 103.092 84.1148 110.401 82.4412 118.722C81.9834 121.239 85.8238 122.1 86.3942 119.688C88.0902 112.019 91.6764 105.488 97.1453 99.878C98.8183 97.8676 95.8931 95.1289 94.1077 97.0339Z" fill="#FFD586"/>
<path d="M35.134 95.0493C37.0466 96.84 39.7773 93.9264 37.8647 92.1357C35.9521 90.345 33.2214 93.2586 35.134 95.0493Z" fill="#FFD586"/>
<path d="M18.474 95.0205C20.3866 96.8112 23.1173 93.8976 21.2047 92.1069C19.2921 90.3162 16.5614 93.2298 18.474 95.0205Z" fill="#FFD586"/>
<path d="M18.8167 117.643C20.7293 119.434 23.46 116.52 21.5474 114.73C19.6348 112.939 16.9041 115.853 18.8167 117.643Z" fill="#FFD586"/>
<path d="M34.3516 116.619C36.2643 118.41 38.995 115.496 37.0824 113.705C35.1698 111.914 32.439 114.828 34.3516 116.619Z" fill="#FFD586"/>
<path d="M51.7667 141.76C53.6793 143.551 56.41 140.638 54.4974 138.847C52.5848 137.056 49.8541 139.97 51.7667 141.76Z" fill="#FFD586"/>
<path d="M29.3093 58.6677C29.0993 58.8919 28.9943 59.0039 28.7842 59.2281C26.9987 61.1331 29.9239 63.8718 31.7094 61.9668C31.9194 61.7426 32.0244 61.6306 32.2345 61.4064C34.02 59.5014 31.0948 56.7627 29.3093 58.6677Z" fill="#FFD586"/>
<path d="M77.4288 134.438C75.7331 138.952 73.7073 143.367 71.4566 147.572C70.3386 149.891 73.8865 151.74 75.0044 149.421C77.1427 145.111 79.1684 140.695 80.9767 136.287C81.9895 134.079 78.4342 132.013 77.4288 134.438Z" fill="#FFD586"/>
<path d="M82.9097 12.0696C81.3414 17.1236 80.6433 22.1507 80.6053 27.3749C80.695 29.9837 84.6106 29.8626 84.7384 27.2471C84.6789 22.3523 85.497 17.648 86.9677 12.9234C87.6431 10.3998 83.6976 9.65133 82.9097 12.0696Z" fill="#FFD586"/>
</svg>
