<svg width="159" height="209" viewBox="0 0 159 209" fill="none" xmlns="http://www.w3.org/2000/svg">
<path d="M55.6222 65.5867C54.1512 57.0755 51.8771 48.7972 48.7349 40.7765C48.2656 41.1048 47.8612 41.4082 47.3919 41.7365C55.0803 47.6464 62.6541 53.4514 68.6791 61.0388C69.3756 61.888 70.7835 60.9032 70.0621 59.9891C63.9226 52.2968 56.2343 46.3869 48.4563 40.4369C47.8189 39.9369 46.8155 40.6182 47.1133 41.3968C50.2059 49.2877 52.4952 57.4114 53.8917 65.7279C54.0942 66.8405 55.735 66.6591 55.6222 65.5867Z" fill="#FFEDCC"/>
<path d="M48.4385 81.7962C36.8697 68.0737 19.5364 60.2748 1.57527 60.7485C1.7738 61.2675 1.97234 61.7866 2.17088 62.3057C9.78201 55.3782 24.1147 56.8873 33.4754 58.8107C43.4143 60.8848 52.6858 65.2967 60.6528 71.5463C61.5191 72.2561 62.6235 70.8668 61.6923 70.1818C53.2674 63.5124 43.328 58.9097 32.7309 56.8642C23.1107 55.0401 8.96699 53.8306 1.18608 60.8973C0.571844 61.4298 0.904053 62.4927 1.78169 62.4545C19.0846 62.0094 35.9447 69.5431 47.0555 82.8459C47.7521 83.6951 49.1351 82.6454 48.4385 81.7962Z" fill="#FFEDCC"/>
<path d="M65.2148 54.7032C65.6452 42.4154 69.4052 30.8622 78.2064 21.9921C77.6683 21.7516 77.2199 21.5513 76.6819 21.3108C74.5881 35.2761 76.438 49.4435 82.2542 62.317C82.7162 63.3303 84.3378 62.7101 83.8759 61.6968C78.2237 49.058 76.3682 35.2646 78.4067 21.5436C78.5629 20.5913 77.4715 20.265 76.8821 20.8624C67.9359 29.9367 63.9757 41.9383 63.5548 54.4456C63.5131 55.5028 65.1979 55.8253 65.2148 54.7032Z" fill="#FFEDCC"/>
<path d="M39.1152 58.5873C31.8184 45.5364 20.3302 34.163 7.58923 26.3181C7.34895 26.8563 7.14871 27.3047 6.90843 27.8429C15.0841 28.8064 23.0787 30.6573 30.3717 34.5616C37.5101 38.4506 43.4888 43.9731 49.273 49.5701C50.0744 50.3048 51.1388 49.0052 50.3125 48.2057C44.4787 42.4789 38.3206 36.8762 31.0925 32.9471C23.6851 28.9379 15.5359 27.0717 7.20569 26.0929C6.43296 26.0166 5.73299 27.1025 6.52489 27.6177C19.1513 35.3576 30.5002 46.5612 37.7722 59.5472C38.259 60.6254 39.642 59.5758 39.1152 58.5873Z" fill="#FFEDCC"/>
<path d="M42.891 40.8549C41.6575 27.7161 44.5906 12.8348 52.0692 1.86741C51.5807 1.75674 51.1171 1.71095 50.5638 1.62509C54.27 15.0082 57.7911 28.6851 64.9351 40.7533C65.5268 41.7169 66.9098 40.6673 66.3181 39.7036C59.2238 27.7653 55.8171 14.1933 52.1606 0.939955C52.0021 0.331199 51.05 0.174739 50.6551 0.697633C42.9763 12.1135 39.9079 27.4184 41.1605 40.9962C41.2981 42.1336 43.0038 41.9274 42.891 40.8549Z" fill="#FFEDCC"/>
<path d="M32.5979 33.1894C29.0835 24.1955 23.0833 16.673 17.2129 9.10088C16.8581 9.53408 16.5033 9.96728 16.1486 10.4005C25.6621 13.3066 34.06 18.3502 41.0083 25.4356C41.7697 26.26 42.8741 24.8707 42.0478 24.0711C35.0099 16.9456 26.4726 11.7322 16.8942 8.85089C16.1367 8.62 15.2478 9.40626 15.8299 10.1505C21.5858 17.6177 27.5115 24.9455 30.9763 33.8097C31.3734 34.8478 32.995 34.2275 32.5979 33.1894Z" fill="#FFEDCC"/>
<path d="M63.3986 63.951C64.658 65.1055 65.7477 66.3994 66.7325 67.8077C67.3891 68.7466 68.7721 67.697 68.1156 66.7581C67.0811 65.22 65.8121 63.846 64.5029 62.5617C63.6366 61.8519 62.5971 63.2163 63.3986 63.951Z" fill="#FFEDCC"/>
<path d="M91.985 63.6526C68.5149 60.804 44.3341 79.4243 37.0658 101.244C32.6594 114.607 35.3374 128.606 39.3183 141.735C41.8767 149.979 45.1982 158.08 49.0539 165.828C52.4973 172.692 56.1449 179.701 60.916 185.76C65.1051 191.075 70.6066 195.739 75.8848 199.818C81.1382 203.833 86.7425 206.822 93.3575 207.787C107.54 209.875 121.89 206.766 134.214 199.523C144.546 193.489 152.788 184.907 156.394 173.338C160.205 160.947 158.5 146.576 154.931 134.33C152.354 125.647 147.771 117.359 143.597 109.362C139.621 101.883 135.256 94.5532 130.042 87.9199C120.41 75.7622 107.518 65.967 91.985 63.6526C90.8783 63.4809 90.6459 65.206 91.6629 65.3377C120.76 69.6784 136.621 98.1217 148.072 122.228C158.41 144.007 162.6 174.014 142.485 191.6C132.068 200.716 117.937 206.344 104.12 206.571C97.5528 206.703 90.6078 206.236 84.6296 203.242C78.4721 200.168 73.3196 195.445 68.2817 190.827C57.683 181.195 51.1358 167.188 45.7087 154.166C40.232 141.014 35.0486 125.518 36.6596 111.068C39.4264 85.8383 65.7602 62.1552 91.7278 65.3129C92.7695 65.5094 93.0668 63.7594 91.985 63.6526Z" fill="#FFEDCC"/>
<path d="M87.1125 197.681C86.4024 196.019 85.7972 194.242 85.4763 192.431C85.333 191.668 85.165 190.84 85.1763 190.092C85.1892 188.376 85.5497 187.569 87.2858 187.053C90.6683 185.983 94.7976 188.42 97.6866 190.141C98.6578 190.736 99.3138 189.147 98.4074 188.526C95.3142 186.66 88.5994 182.907 85.099 185.807C81.6635 188.683 84.0955 195.042 85.4661 198.236C85.9529 199.314 87.5745 198.694 87.1125 197.681Z" fill="#FFEDCC"/>
<path d="M112.906 180.75C112.138 177.771 110.309 169.099 116.161 170.208C119.196 170.757 122.129 172.982 124.434 174.927C125.301 175.637 126.34 174.272 125.474 173.562C122.581 171.248 116.705 166.578 112.737 168.84C108.769 171.101 110.343 177.937 111.22 181.395C111.617 182.433 113.238 181.812 112.906 180.75Z" fill="#FFEDCC"/>
<path d="M135.977 163.893C135.209 160.914 133.379 152.242 139.231 153.351C142.267 153.9 145.2 156.125 147.505 158.07C148.372 158.78 149.411 157.415 148.545 156.705C145.652 154.391 139.776 149.721 135.808 151.983C131.84 154.244 133.414 161.08 134.29 164.538C134.623 165.601 136.244 164.98 135.977 163.893Z" fill="#FFEDCC"/>
<path d="M90.3294 171.684C89.6193 170.021 89.0141 168.245 88.6932 166.434C88.5499 165.67 88.3818 164.842 88.3931 164.094C88.4061 162.379 88.7665 161.571 90.5026 161.056C93.8851 159.985 98.0144 162.422 100.903 164.143C101.875 164.739 102.531 163.149 101.624 162.529C98.5311 160.663 91.8163 156.909 88.3159 159.81C84.8803 162.686 87.3124 169.044 88.683 172.239C89.1697 173.317 90.7913 172.697 90.3294 171.684Z" fill="#FFEDCC"/>
<path d="M64.0983 185.138C63.3882 183.476 62.783 181.699 62.4621 179.888C62.3188 179.125 62.1507 178.297 62.162 177.549C62.175 175.833 62.5354 175.026 64.2715 174.51C67.654 173.44 71.7833 175.877 74.6723 177.598C75.6436 178.193 76.2996 176.604 75.3932 175.983C72.3 174.117 65.5852 170.364 62.0848 173.264C58.6492 176.14 61.0813 182.499 62.4519 185.693C62.8738 186.796 64.4954 186.176 64.0983 185.138Z" fill="#FFEDCC"/>
<path d="M116.123 154.752C115.355 151.773 113.526 143.102 119.377 144.21C122.413 144.76 125.346 146.985 127.651 148.93C128.518 149.639 129.557 148.275 128.691 147.565C125.798 145.25 119.922 140.581 115.954 142.842C111.986 145.104 113.56 151.939 114.436 155.397C114.833 156.435 116.455 155.815 116.123 154.752Z" fill="#FFEDCC"/>
<path d="M139.194 137.895C138.426 134.916 136.596 126.245 142.448 127.353C145.484 127.903 148.417 130.128 150.722 132.073C151.588 132.782 152.628 131.418 151.762 130.708C148.869 128.393 142.993 123.724 139.025 125.985C135.057 128.247 136.631 135.082 137.507 138.54C137.904 139.578 139.461 138.983 139.194 137.895Z" fill="#FFEDCC"/>
<path d="M138.445 115.72C137.662 112.896 136.316 107.238 139.261 105.219C140.2 104.562 139.15 103.179 138.211 103.835C134.522 106.436 135.872 112.688 136.823 116.341C137.155 117.404 138.777 116.783 138.445 115.72Z" fill="#FFEDCC"/>
<path d="M134.929 187.201C134.161 184.222 132.331 175.551 138.183 176.659C141.219 177.209 144.152 179.434 146.457 181.378C147.323 182.088 148.363 180.724 147.497 180.014C144.604 177.699 138.728 173.03 134.76 175.291C130.792 177.553 132.366 184.388 133.242 187.846C133.574 188.909 135.196 188.289 134.929 187.201Z" fill="#FFEDCC"/>
<path d="M66.7285 163.828C66.0184 162.165 65.4132 160.389 65.0923 158.578C64.949 157.814 64.781 156.986 64.7923 156.238C64.8052 154.523 65.1657 153.715 66.9018 153.2C70.2843 152.129 74.4136 154.566 77.3025 156.287C78.2738 156.883 78.9298 155.293 78.0234 154.673C74.9302 152.807 68.2154 149.053 64.715 151.954C61.2795 154.83 63.7115 161.188 65.0821 164.383C65.5689 165.461 67.1905 164.841 66.7285 163.828Z" fill="#FFEDCC"/>
<path d="M92.5868 146.871C91.8192 143.892 89.9895 135.221 95.8414 136.33C98.877 136.879 101.81 139.104 104.115 141.049C104.982 141.759 106.021 140.394 105.155 139.684C102.262 137.369 96.3863 132.7 92.4183 134.961C88.4503 137.223 90.0239 144.058 90.9004 147.516C91.2326 148.579 92.8542 147.959 92.5868 146.871Z" fill="#FFEDCC"/>
<path d="M115.593 130.039C114.825 127.06 112.995 118.389 118.847 119.497C121.883 120.047 124.816 122.272 127.121 124.217C127.987 124.926 129.027 123.562 128.161 122.852C125.268 120.537 119.392 115.868 115.424 118.129C111.456 120.391 113.03 127.226 113.906 130.684C114.303 131.722 115.925 131.102 115.593 130.039Z" fill="#FFEDCC"/>
<path d="M70.5709 136.55C69.8608 134.888 69.2556 133.111 68.9347 131.3C68.7914 130.537 68.6233 129.708 68.6346 128.96C68.6476 127.245 69.008 126.437 70.7441 125.922C74.1267 124.851 78.2559 127.288 81.1449 129.01C82.1162 129.605 82.7722 128.015 81.8658 127.395C78.7726 125.529 72.0578 121.775 68.5574 124.676C65.1218 127.552 67.5539 133.911 68.9245 137.105C69.4112 138.183 71.0328 137.563 70.5709 136.55Z" fill="#FFEDCC"/>
<path d="M96.3644 119.618C95.5967 116.639 93.767 107.968 99.6189 109.077C102.655 109.626 105.587 111.851 107.893 113.796C108.759 114.506 109.799 113.141 108.932 112.431C106.039 110.116 100.164 105.447 96.1958 107.708C92.2278 109.97 93.8014 116.805 94.6779 120.263C95.0501 121.237 96.6717 120.616 96.3644 119.618Z" fill="#FFEDCC"/>
<path d="M51.5643 102.021C50.8542 100.359 50.249 98.5819 49.9281 96.7709C49.7848 96.0076 49.6167 95.1794 49.628 94.4313C49.641 92.7157 50.0014 91.9085 51.7375 91.3932C55.12 90.3225 59.2493 92.7594 62.1383 94.4806C63.1096 95.076 63.7655 93.4864 62.8591 92.8662C59.766 90.9999 53.0512 87.2464 49.5508 90.1471C46.1152 93.0231 48.5473 99.3816 49.9179 102.576C50.3398 103.679 51.9614 103.059 51.5643 102.021Z" fill="#FFEDCC"/>
<path d="M77.3577 85.0893C76.5901 82.1104 74.7604 73.439 80.6123 74.5476C83.6479 75.0971 86.5809 77.3221 88.8861 79.2667C89.7524 79.9766 90.7919 78.6121 89.9256 77.9022C87.0327 75.5875 81.1572 70.9179 77.1892 73.1794C73.2211 75.4409 74.7948 82.2765 75.6713 85.7344C75.9786 86.7324 77.6002 86.1122 77.3577 85.0893Z" fill="#FFEDCC"/>
<path d="M119.435 102.761C118.668 99.7825 116.838 91.111 122.69 92.2196C125.725 92.7692 128.658 94.9942 130.964 96.9387C131.83 97.6486 132.869 96.2841 132.003 95.5742C129.11 93.2595 123.235 88.5899 119.267 90.8514C115.299 93.1129 116.872 99.9485 117.749 103.406C118.081 104.469 119.678 103.784 119.435 102.761Z" fill="#FFEDCC"/>
<path d="M46.9806 151.077C46.213 148.098 44.3833 139.426 50.2352 140.535C53.2708 141.084 56.2038 143.309 58.509 145.254C59.3753 145.964 60.4149 144.599 59.5485 143.889C56.6556 141.575 50.7801 136.905 46.8121 139.167C42.8441 141.428 44.4177 148.264 45.2942 151.722C45.6264 152.785 47.248 152.164 46.9806 151.077Z" fill="#FFEDCC"/>
<path d="M47.6283 128.665C46.9182 127.003 46.313 125.226 45.9921 123.415C45.8488 122.652 45.6807 121.824 45.692 121.076C45.705 119.36 46.0654 118.553 47.8015 118.037C51.184 116.967 55.3133 119.404 58.2023 121.125C59.1736 121.72 59.8295 120.131 58.9231 119.51C55.83 117.644 49.1152 113.891 45.6147 116.791C42.1792 119.667 44.6113 126.026 45.9819 129.22C46.4686 130.299 48.0902 129.678 47.6283 128.665Z" fill="#FFEDCC"/>
<path d="M73.4217 111.734C72.6541 108.755 70.8244 100.083 76.6763 101.192C79.7119 101.741 82.6448 103.966 84.95 105.911C85.8164 106.621 86.8559 105.256 85.9896 104.546C83.0967 102.232 77.2211 97.5622 73.2531 99.8237C69.2851 102.085 70.8587 108.921 71.7352 112.379C72.0674 113.442 73.689 112.821 73.4217 111.734Z" fill="#FFEDCC"/>
<path d="M96.4925 94.8767C95.7249 91.8978 93.8952 83.2264 99.7471 84.335C102.783 84.8845 105.716 87.1095 108.021 89.0541C108.887 89.7639 109.927 88.3995 109.06 87.6896C106.167 85.3748 100.292 80.7053 96.324 82.9668C92.356 85.2282 93.9296 92.0639 94.8061 95.5217C95.1383 96.5847 96.7599 95.9644 96.4925 94.8767Z" fill="#FFEDCC"/>
<path d="M110.205 202.459C109.438 199.48 107.608 190.808 113.46 191.917C116.495 192.467 119.428 194.692 121.734 196.636C122.6 197.346 123.639 195.982 122.773 195.272C119.88 192.957 114.005 188.287 110.037 190.549C106.069 192.81 107.642 199.646 108.519 203.104C108.891 204.077 110.513 203.457 110.205 202.459Z" fill="#FFEDCC"/>
</svg>
