<svg width="166" height="112" viewBox="0 0 166 112" fill="none" xmlns="http://www.w3.org/2000/svg">
<path d="M11.1943 102.551C56.7735 67.4696 107.166 39.7741 161.373 20.3994C164.893 19.1308 162.574 13.6609 159.054 14.9295C104.395 34.5246 53.4138 62.6191 7.56082 98.0578C4.65739 100.368 8.15394 105.04 11.1943 102.551Z" fill="#53B72C"/>
<path d="M161.944 13.7444C138.767 0.766824 111.211 -2.80491 85.3742 4.30774C56.1533 12.5104 33.0648 34.5037 17.4867 59.9955C11.0256 70.6399 0.415668 86.3269 0.80653 99.1128C1.00404 109.196 15.1993 109.884 22.5164 110.68C49.3183 113.389 77.607 104.186 100.645 90.3836C128.752 73.6631 150.756 48.2831 165.208 19.0891C167.001 15.6422 161.41 13.3338 159.795 16.9175C146.218 44.2304 125.898 67.7827 99.9566 83.8955C86.1914 92.6188 70.9723 98.8066 55.108 102.512C47.9429 104.103 40.6953 105.063 33.502 105.213C28.871 105.345 24.0204 105.025 19.4437 104.347C12.2635 103.372 6.72835 103.945 7.92821 93.516C8.86938 86.0097 14.1809 77.6037 17.8081 71.0254C21.8048 63.5959 26.4729 56.3984 31.6757 49.6114C41.8075 36.3948 54.5296 24.6003 69.5422 16.8351C98.0331 1.82887 131.904 3.44091 159.769 19.1676C163.072 21.1372 165.247 15.714 161.944 13.7444Z" fill="#53B72C"/>
<path d="M112.146 1.88546C105.589 13.0239 98.4041 27.9364 97.3976 41.0679C97.0846 44.8001 102.963 45.6263 103.276 41.894C104.133 30.0662 110.77 15.8682 116.82 5.75957C118.75 2.1341 114.117 -1.42453 112.146 1.88546Z" fill="#53B72C"/>
<path d="M69.5108 58.2406C69.3284 50.7227 71.1737 42.7757 72.293 35.4063C73.2755 28.2155 74.3949 20.846 75.8706 13.7504C76.677 10.1132 70.7985 9.28705 69.9922 12.9242C66.7668 27.4728 63.1589 43.9976 63.6605 58.855C63.7039 62.861 69.6911 62.0681 69.5108 58.2406Z" fill="#53B72C"/>
<path d="M34.8174 80.9685C34.194 68.8553 35.5982 56.3131 38.5236 44.3718C39.3299 40.7347 33.6297 40.0454 32.6451 43.5456C29.4459 55.8441 28.2612 68.8387 28.8302 81.7614C29.1474 85.4103 34.9977 84.7959 34.8174 80.9685Z" fill="#53B72C"/>
<path d="M44.0231 77.8237C53.7979 87.6016 71.2049 98.1339 85.2894 96.75C88.9338 96.4278 88.3277 90.5707 84.505 90.756C72.6263 91.8478 56.7818 82.2318 48.6521 74.0012C46.116 71.7696 41.2676 75.1397 44.0231 77.8237Z" fill="#53B72C"/>
<path d="M73.7875 61.5255C86.8222 69.267 100.828 74.6333 115.765 77.3088C119.533 77.933 120.228 72.2244 116.597 71.4216C102.647 68.9363 89.6692 64.0758 77.3473 56.8818C74.2223 55.0491 70.6625 59.6928 73.7875 61.5255Z" fill="#53B72C"/>
<path d="M127.442 35.4841C133.336 38.8758 139.421 41.2794 146.012 42.653C149.643 43.4559 150.476 37.5687 146.844 36.7658C141.418 35.7193 136.183 33.6847 131.317 30.7987C127.699 28.8708 124.139 33.5145 127.442 35.4841Z" fill="#53B72C"/>
</svg>
