<svg width="115" height="107" viewBox="0 0 115 107" fill="none" xmlns="http://www.w3.org/2000/svg">
<path d="M9.68967 101.752C38.5636 65.748 72.6043 34.5832 111.21 9.17644C113.716 7.51832 110.862 3.69729 108.356 5.35541C69.4397 31.0198 35.0154 62.6075 5.99601 98.9424C4.17112 101.295 7.79202 104.27 9.68967 101.752Z" fill="#53B72C"/>
<path d="M110.386 3.8822C89.8197 -1.82149 67.6318 0.636684 48.8252 11.0931C27.586 23.0424 13.7659 44.5708 6.4753 67.3967C3.46508 76.9197 -1.82021 91.1608 0.926077 101.049C3.00549 108.868 14.2154 106.704 20.078 105.933C41.5127 102.946 61.8334 90.3946 77.1782 75.2578C95.9212 56.8835 108.248 32.9224 113.954 7.42587C114.695 4.39909 109.89 3.66393 109.314 6.76347C103.933 30.6276 92.5716 52.8442 75.4019 70.3333C66.3244 79.7486 55.6283 87.4647 43.9545 93.3697C38.6663 95.972 33.1932 98.0984 27.6079 99.5837C24.0188 100.567 20.1721 101.24 16.4708 101.583C10.6809 102.189 6.47036 103.688 5.41555 95.3336C4.71689 89.3057 7.25723 81.7456 8.83208 75.93C10.5327 69.3808 12.8018 62.8847 15.5664 56.6068C20.9502 44.3814 28.6272 32.7715 38.8611 23.8655C58.2315 6.75383 84.9741 1.56749 109.723 8.52165C112.677 9.42806 113.34 4.7886 110.386 3.8822Z" fill="#53B72C"/>
<path d="M69.2565 4.11365C66.266 14.0397 63.5058 27.026 65.2275 37.4493C65.6958 40.4169 70.4414 39.9426 69.9731 36.9749C68.3833 27.5959 70.8524 15.2705 73.6444 6.24321C74.4583 3.05122 70.163 1.15962 69.2565 4.11365Z" fill="#53B72C"/>
<path d="M46.7422 56.1342C45.1645 50.311 45.0873 43.7679 44.5538 37.8128C43.9476 32.0229 43.4141 26.0678 43.2111 20.2583C43.146 17.2709 38.4004 17.7453 38.4655 20.7326C38.7261 32.6822 39.0655 46.2444 42.2937 57.7256C43.0924 60.8388 47.6137 59.0822 46.7422 56.1342Z" fill="#53B72C"/>
<path d="M24.0054 80.4423C21.2061 71.1224 19.9072 61.0826 19.9104 51.2217C19.8452 48.2343 15.2649 48.7814 15.1648 51.696C15.0162 61.8874 16.5726 72.2379 19.4841 82.1989C20.4284 84.9817 24.8769 83.3903 24.0054 80.4423Z" fill="#53B72C"/>
<path d="M30.5895 76.2409C40.0851 82.0006 55.6813 86.8964 66.4093 83.1391C69.192 82.1949 67.6007 77.7464 64.6527 78.6179C55.5904 81.7279 41.3887 77.249 33.4724 72.3821C31.067 71.1256 27.9265 74.6737 30.5895 76.2409Z" fill="#53B72C"/>
<path d="M50.7072 57.8803C62.3581 61.4332 74.3137 62.9505 86.4815 62.1943C89.5417 61.964 88.9945 57.3836 86.0072 57.4487C74.6457 58.1655 63.5889 56.8468 52.5988 53.5849C49.81 52.7513 47.9184 57.0467 50.7072 57.8803Z" fill="#53B72C"/>
<path d="M87.6095 27.3839C92.8568 28.9057 98.0646 29.6212 103.471 29.4378C106.458 29.3727 105.984 24.6271 102.997 24.6923C98.5618 24.909 94.0876 24.3193 89.7391 22.9961C86.5471 22.1821 84.6555 26.4775 87.6095 27.3839Z" fill="#53B72C"/>
</svg>
