<svg width="133" height="21" viewBox="0 0 133 21" fill="none" xmlns="http://www.w3.org/2000/svg">
<path fill-rule="evenodd" clip-rule="evenodd" d="M10.4828 0C4.69329 0 0 4.69329 0 10.4828C0 16.2722 4.69329 20.9655 10.4828 20.9655C16.2722 20.9655 20.9655 16.2722 20.9655 10.4828C20.9655 4.69329 16.2722 0 10.4828 0ZM11.5753 10.9433V16.6465H9.21564V10.9435H8.03674V8.97815H9.21564V7.79817C9.21564 6.19484 9.88133 5.24144 11.7726 5.24144H13.3472V7.20701H12.363C11.6267 7.20701 11.578 7.48167 11.578 7.99426L11.5753 8.97793H13.3583L13.1497 10.9433H11.5753Z" fill="#121212"/>
<path fill-rule="evenodd" clip-rule="evenodd" d="M47.8275 0C42.038 0 37.3447 4.69329 37.3447 10.4828C37.3447 16.2722 42.038 20.9655 47.8275 20.9655C53.617 20.9655 58.3102 16.2722 58.3102 10.4828C58.3102 4.69329 53.617 0 47.8275 0ZM45.5227 4.92572C46.1191 4.89858 46.3097 4.89194 47.828 4.89194H47.8263C49.3451 4.89194 49.535 4.89858 50.1314 4.92572C50.7265 4.95297 51.1331 5.0472 51.4895 5.18546C51.8575 5.32814 52.1685 5.51916 52.4795 5.83015C52.7905 6.14091 52.9815 6.45284 53.1248 6.82055C53.2622 7.17604 53.3566 7.58231 53.3845 8.1775C53.4113 8.77386 53.4183 8.96442 53.4183 10.4828C53.4183 12.0012 53.4113 12.1913 53.3845 12.7876C53.3566 13.3826 53.2622 13.789 53.1248 14.1446C52.9815 14.5122 52.7905 14.8241 52.4795 15.1349C52.1689 15.4459 51.8574 15.6373 51.4898 15.7801C51.1341 15.9184 50.7274 16.0126 50.1322 16.0399C49.5358 16.067 49.3458 16.0737 47.8273 16.0737C46.3091 16.0737 46.1186 16.067 45.5223 16.0399C44.9272 16.0126 44.5208 15.9184 44.1651 15.7801C43.7976 15.6373 43.4857 15.4459 43.175 15.1349C42.8642 14.8241 42.6731 14.5122 42.5302 14.1445C42.3921 13.789 42.2979 13.3827 42.2705 12.7875C42.2435 12.1912 42.2367 12.0012 42.2367 10.4828C42.2367 8.96442 42.2437 8.77374 42.2704 8.17739C42.2972 7.58242 42.3915 7.17604 42.5301 6.82044C42.6734 6.45284 42.8644 6.14091 43.1754 5.83015C43.4861 5.51928 43.7981 5.32826 44.1658 5.18546C44.5213 5.0472 44.9275 4.95297 45.5227 4.92572Z" fill="#121212"/>
<path fill-rule="evenodd" clip-rule="evenodd" d="M47.3264 5.89959C47.4238 5.89944 47.5286 5.89949 47.6416 5.89954L47.828 5.89959C49.3207 5.89959 49.4977 5.90495 50.0871 5.93174C50.6323 5.95666 50.9281 6.04775 51.1252 6.12427C51.3861 6.22561 51.5721 6.34674 51.7677 6.54242C51.9633 6.7381 52.0845 6.92447 52.186 7.18537C52.2626 7.38222 52.3538 7.67807 52.3786 8.22318C52.4054 8.81255 52.4112 8.98959 52.4112 10.4817C52.4112 11.9737 52.4054 12.1508 52.3786 12.7401C52.3537 13.2852 52.2626 13.5811 52.186 13.7779C52.0847 14.0388 51.9633 14.2246 51.7677 14.4202C51.572 14.6159 51.3862 14.737 51.1252 14.8383C50.9283 14.9152 50.6323 15.0061 50.0871 15.031C49.4978 15.0578 49.3207 15.0636 47.828 15.0636C46.3351 15.0636 46.1582 15.0578 45.5688 15.031C45.0237 15.0058 44.7278 14.9147 44.5306 14.8382C44.2697 14.7369 44.0834 14.6157 43.8877 14.4201C43.692 14.2244 43.5709 14.0385 43.4693 13.7775C43.3928 13.5806 43.3016 13.2848 43.2768 12.7397C43.25 12.1503 43.2446 11.9732 43.2446 10.4803C43.2446 8.98726 43.25 8.81115 43.2768 8.22178C43.3017 7.67667 43.3928 7.38082 43.4693 7.18374C43.5706 6.92284 43.692 6.73647 43.8877 6.54079C44.0834 6.34511 44.2697 6.22398 44.5306 6.12241C44.7277 6.04554 45.0237 5.95468 45.5688 5.92964C46.0846 5.90635 46.2844 5.89936 47.3264 5.89819V5.89959ZM50.8122 6.82794C50.4418 6.82794 50.1413 7.1281 50.1413 7.49861C50.1413 7.869 50.4418 8.16951 50.8122 8.16951C51.1826 8.16951 51.4831 7.869 51.4831 7.49861C51.4831 7.12821 51.1826 6.8277 50.8122 6.8277V6.82794ZM44.9567 10.4828C44.9567 8.89723 46.2422 7.6117 47.8278 7.61164C49.4133 7.61164 50.6985 8.89719 50.6985 10.4828C50.6985 12.0684 49.4135 13.3533 47.8279 13.3533C46.2423 13.3533 44.9567 12.0684 44.9567 10.4828Z" fill="#121212"/>
<path fill-rule="evenodd" clip-rule="evenodd" d="M47.828 8.61938C48.8572 8.61938 49.6916 9.4537 49.6916 10.483C49.6916 11.5122 48.8572 12.3466 47.828 12.3466C46.7987 12.3466 45.9644 11.5122 45.9644 10.483C45.9644 9.4537 46.7987 8.61938 47.828 8.61938V8.61938Z" fill="#121212"/>
<path fill-rule="evenodd" clip-rule="evenodd" d="M85.1725 0C79.383 0 74.6897 4.69329 74.6897 10.4828C74.6897 16.2722 79.383 20.9655 85.1725 20.9655C90.9619 20.9655 95.6552 16.2722 95.6552 10.4828C95.6552 4.69329 90.9619 0 85.1725 0ZM84.8805 8.88337L84.8585 8.52064C84.7925 7.58051 85.3717 6.72181 86.2883 6.38869C86.6256 6.27025 87.1975 6.25545 87.5715 6.35908C87.7181 6.4035 87.9968 6.55155 88.1947 6.6848L88.554 6.92908L88.95 6.80324C89.17 6.73662 89.4632 6.62558 89.5952 6.55155C89.7199 6.48493 89.8299 6.44791 89.8299 6.47012C89.8299 6.59597 89.5586 7.02532 89.3313 7.2622C89.0233 7.59532 89.1113 7.62493 89.7346 7.40285C90.1085 7.277 90.1158 7.277 90.0425 7.41765C89.9985 7.49168 89.7712 7.75077 89.5292 7.98765C89.1186 8.3948 89.0966 8.43921 89.0966 8.77973C89.0966 9.30532 88.8473 10.4009 88.598 11.0005C88.1361 12.1257 87.1462 13.2879 86.1563 13.8727C84.7631 14.6944 82.908 14.9017 81.3462 14.4205C80.8256 14.2577 79.931 13.8431 79.931 13.7691C79.931 13.7469 80.2023 13.7173 80.5323 13.7099C81.2215 13.6951 81.9108 13.5026 82.4974 13.1621L82.8934 12.9252L82.4387 12.7697C81.7935 12.5477 81.2142 12.0369 81.0676 11.5557C81.0236 11.4002 81.0382 11.3928 81.4489 11.3928L81.8741 11.3854L81.5148 11.2152C81.0896 11.0005 80.7009 10.6378 80.5103 10.2677C80.371 10.0012 80.195 9.32752 80.2463 9.27571C80.261 9.2535 80.415 9.29791 80.591 9.35713C81.0969 9.5422 81.1629 9.49778 80.8696 9.18687C80.3197 8.62428 80.151 7.78778 80.415 6.99571L80.5396 6.64038L81.0236 7.12155C82.0135 8.09129 83.1793 8.66869 84.5138 8.83895L84.8805 8.88337Z" fill="#121212"/>
<path fill-rule="evenodd" clip-rule="evenodd" d="M122.517 0C116.728 0 112.034 4.69329 112.034 10.4828C112.034 16.2722 116.728 20.9655 122.517 20.9655C128.307 20.9655 133 16.2722 133 10.4828C133 4.69329 128.307 0 122.517 0ZM126.886 6.87906C127.367 7.01108 127.746 7.40008 127.874 7.89409C128.108 8.78941 128.108 10.6575 128.108 10.6575C128.108 10.6575 128.108 12.5255 127.874 13.4209C127.746 13.9149 127.367 14.3039 126.886 14.436C126.014 14.6759 122.517 14.6759 122.517 14.6759C122.517 14.6759 119.021 14.6759 118.149 14.436C117.667 14.3039 117.289 13.9149 117.16 13.4209C116.926 12.5255 116.926 10.6575 116.926 10.6575C116.926 10.6575 116.926 8.78941 117.16 7.89409C117.289 7.40008 117.667 7.01108 118.149 6.87906C119.021 6.63912 122.517 6.63912 122.517 6.63912C122.517 6.63912 126.014 6.63912 126.886 6.87906Z" fill="#121212"/>
<path fill-rule="evenodd" clip-rule="evenodd" d="M121.469 12.5795V9.08521L124.264 10.8324L121.469 12.5795Z" fill="#121212"/>
</svg>
